<svg xmlns="http://www.w3.org/2000/svg" width="512" height="512" viewBox="0 0 512 512" xmlns:xlink="http://www.w3.org/1999/xlink">
  <defs>
    <filter id="a" width="164.6%" height="155.9%" x="-32.3%" y="-15.3%" filterUnits="objectBoundingBox">
      <feOffset dy="28" in="SourceAlpha" result="shadowOffsetOuter1"/>
      <feGaussianBlur stdDeviation="16" in="shadowOffsetOuter1" result="shadowBlurOuter1"/>
      <feColorMatrix values="0 0 0 0 0.368627451 0 0 0 0 0.611764706 0 0 0 0 0.796078431 0 0 0 0.35 0" in="shadowBlurOuter1" result="shadowMatrixOuter1"/>
      <feMerge>
        <feMergeNode in="shadowMatrixOuter1"/>
        <feMergeNode in="SourceGraphic"/>
      </feMerge>
    </filter>
    <linearGradient id="c" x1="50%" x2="50%" y1="30.815%" y2="100%">
      <stop stop-color="#3D5384" offset="0%"/>
      <stop stop-color="#1F2D51" offset="100%"/>
    </linearGradient>
    <path id="b" d="M111,8.66025404 L177,46.7653718 C186.282032,52.1243557 192,62.0281662 192,72.7461339 L192,148.956369 C192,159.674337 186.282032,169.578148 177,174.937132 L111,213.042249 C101.717968,218.401233 90.2820323,218.401233 81,213.042249 L15,174.937132 C5.7179677,169.578148 -6.50146603e-13,159.674337 -6.60804744e-13,148.956369 L-6.89226454e-13,72.7461339 C-6.94555524e-13,62.0281662 5.7179677,52.1243557 15,46.7653718 L81,8.66025404 C90.2820323,3.30127019 101.717968,3.30127019 111,8.66025404 Z"/>
    <linearGradient id="d" x1="168.335%" x2="-66.084%" y1="44.29%" y2="57.598%">
      <stop stop-color="#546FA3" offset="0%"/>
      <stop stop-color="#2A3C6A" offset="100%"/>
    </linearGradient>
    <linearGradient id="f" x1="104.957%" x2="6.167%" y1="72.161%" y2="18.645%">
      <stop stop-color="#0A1122" offset="0%"/>
      <stop stop-color="#2A3C6A" offset="100%"/>
    </linearGradient>
    <linearGradient id="g" x1="50%" x2="50%" y1="100%" y2="0%">
      <stop stop-color="#D5F396" offset="0%"/>
      <stop stop-color="#7CE78D" offset="27.49%"/>
      <stop stop-color="#1CC142" offset="100%"/>
    </linearGradient>
    <linearGradient id="h" x1="0%" y1="30.086%" y2="66.584%">
      <stop stop-color="#81E4F1" offset="0%"/>
      <stop stop-color="#3B74DF" offset="66.79%"/>
      <stop stop-color="#2D5EDC" offset="100%"/>
    </linearGradient>
    <linearGradient id="i" x1="100%" x2="6.577%" y1="31.111%" y2="65.361%">
      <stop stop-color="#F99C92" stop-opacity=".903" offset="0%"/>
      <stop stop-color="#E74541" stop-opacity=".903" offset="47.869%"/>
      <stop stop-color="#E53737" stop-opacity=".903" offset="100%"/>
    </linearGradient>
  </defs>
  <g fill="none" fill-rule="evenodd">
    <g filter="url(#a)" transform="translate(160 145)">
      <mask id="e" fill="white">
        <use xlink:href="#b"/>
      </mask>
      <use fill="url(#c)" xlink:href="#b"/>
      <path fill="url(#d)" d="M96,-1.687539e-14 L192,55.4256258 L111,102.190998 C101.717968,107.549981 90.2820323,107.549981 81,102.190998 L-1.12265752e-12,55.4256258 L96,-1.687539e-14 Z" mask="url(#e)"/>
      <path fill="url(#f)" d="M192,55.4256258 L192,166.276878 L96,221.702503 L96,117.779455 C96,113.492268 98.2871871,109.530744 102,107.38715 L192,55.4256258 Z" mask="url(#e)"/>
    </g>
    <path fill="url(#g)" d="M274,81.3923048 L366,134.50853 C371.739511,137.822238 373.706013,145.161323 370.392305,150.900834 C369.339085,152.725065 367.824231,154.239919 366,155.293139 L274,208.409364 C262.861561,214.840145 249.138439,214.840145 238,208.409364 L146,155.293139 C140.260489,151.979431 138.293987,144.640346 141.607695,138.900834 C142.660915,137.076604 144.175769,135.56175 146,134.50853 L238,81.3923048 C249.138439,74.9615242 262.861561,74.9615242 274,81.3923048 Z" opacity=".7"/>
    <path fill="url(#h)" d="M416,221.224183 L416,327.654954 C416,340.509045 409.14634,352.387898 398.018106,358.821408 L306.006035,412.015887 C300.26845,415.332928 292.928224,413.37069 289.611182,407.633104 C288.55572,405.807439 288,403.735872 288,401.627069 L288,295.196297 C288,282.342207 294.85366,270.463354 305.981894,264.029843 L397.993965,210.835365 C403.73155,207.518323 411.071776,209.480562 414.388818,215.218148 C415.44428,217.043812 416,219.115379 416,221.224183 Z" opacity=".703"/>
    <path fill="url(#i)" d="M224,401.631435 C224,403.740239 223.44428,405.811806 222.388818,407.637471 C219.071776,413.375057 211.73155,415.337295 205.993965,412.020253 L113.981894,358.825775 C102.85366,352.392265 96,340.513412 96,327.659321 L96,221.22855 C96,219.119746 96.5557196,217.048179 97.611182,215.222514 C100.928224,209.484929 108.26845,207.52269 114.006035,210.839732 L206.018106,264.03421 C217.14634,270.467721 224,282.346573 224,295.200664 L224,401.631435 Z" opacity=".7"/>
  </g>
</svg>
