<svg xmlns="http://www.w3.org/2000/svg" width="512" height="512" viewBox="0 0 512 512" xmlns:xlink="http://www.w3.org/1999/xlink">
  <defs>
    <filter id="a" width="164.6%" height="155.9%" x="-32.3%" y="-15.3%" filterUnits="objectBoundingBox">
      <feOffset dy="28" in="SourceAlpha" result="shadowOffsetOuter1"/>
      <feGaussianBlur stdDeviation="16" in="shadowOffsetOuter1" result="shadowBlurOuter1"/>
      <feColorMatrix values="0 0 0 0 0.448140598 0 0 0 0 0.495180112 0 0 0 0 0.589259141 0 0 0 0.5 0" in="shadowBlurOuter1" result="shadowMatrixOuter1"/>
      <feMerge>
        <feMergeNode in="shadowMatrixOuter1"/>
        <feMergeNode in="SourceGraphic"/>
      </feMerge>
    </filter>
    <path id="b" d="M111,8.66025404 L177,46.7653718 C186.282032,52.1243557 192,62.0281662 192,72.7461339 L192,148.956369 C192,159.674337 186.282032,169.578148 177,174.937132 L111,213.042249 C101.717968,218.401233 90.2820323,218.401233 81,213.042249 L15,174.937132 C5.7179677,169.578148 -6.57252031e-13,159.674337 -6.67910172e-13,148.956369 L-6.96331881e-13,72.7461339 C-7.01660952e-13,62.0281662 5.7179677,52.1243557 15,46.7653718 L81,8.66025404 C90.2820323,3.30127019 101.717968,3.30127019 111,8.66025404 Z"/>
    <linearGradient id="c" x1="138.263%" x2="-42.254%" y1="50%" y2="50%">
      <stop stop-color="#ECF4FA" offset="0%"/>
      <stop stop-color="#DEE5EC" offset="100%"/>
    </linearGradient>
    <linearGradient id="e" x1="100%" x2="0%" y1="74.796%" y2="31.626%">
      <stop stop-color="#A9B7CB" offset="0%"/>
      <stop stop-color="#CFD9E2" offset="100%"/>
    </linearGradient>
    <path id="f" d="M127.91412,32.9008345 L82,59.4093641 C70.8615612,65.8401447 57.1384388,65.8401447 46,59.4093641 L0.08587988,32.9008345 L49,4.66025404 C58.2820323,-0.698729811 69.7179677,-0.698729811 79,4.66025404 L127.91412,32.9008345 Z"/>
    <linearGradient id="g" x1="50%" x2="50%" y1="0%" y2="30.063%">
      <stop stop-color="#72E667" offset="0%"/>
      <stop stop-color="#2A3C6A" stop-opacity="0" offset="100%"/>
    </linearGradient>
    <path id="i" d="M0,111.227295 L0,58.1962974 C0,45.3422065 6.85365966,33.4633539 17.9818938,27.0298435 L64,0.425625842 L64,56.9563695 C64,67.6743371 58.2820323,77.5781477 49,82.9371316 L1.42108547e-14,111.227295 Z"/>
    <linearGradient id="j" x1="100%" x2="66.303%" y1="75.358%" y2="57.551%">
      <stop stop-color="#4379D2" offset="0%"/>
      <stop stop-color="#2A3C6A" stop-opacity="0" offset="100%"/>
    </linearGradient>
    <path id="l" d="M-6.82121026e-13,0.429992676 L46.0181062,27.0342103 C57.1463403,33.4677207 64,45.3465734 64,58.2006642 L64,111.227295 L15,82.9371316 C5.7179677,77.5781477 -6.43041176e-13,67.6743371 -6.53699317e-13,56.9563695 L-6.74780163e-13,0.429992676 Z"/>
    <linearGradient id="m" x1="1.795%" x2="33.3%" y1="74.944%" y2="58.069%">
      <stop stop-color="#EB7D66" offset="0%"/>
      <stop stop-color="#2A3C6A" stop-opacity="0" offset="100%"/>
    </linearGradient>
  </defs>
  <g fill="none" fill-rule="evenodd">
    <g filter="url(#a)" transform="translate(160 145)">
      <mask id="d" fill="white">
        <use xlink:href="#b"/>
      </mask>
      <use fill="#CFD9E2" xlink:href="#b"/>
      <path fill="url(#c)" d="M96,-1.86517468e-14 L192,55.4256258 L111,102.190998 C101.717968,107.549981 90.2820323,107.549981 81,102.190998 L-1.12265752e-12,55.4256258 L96,-1.86517468e-14 Z" mask="url(#d)"/>
      <path fill="url(#e)" d="M192,55.4256258 L192,166.276878 L96,221.702503 L96,117.779455 C96,113.492268 98.2871871,109.530744 102,107.38715 L192,55.4256258 Z" mask="url(#d)"/>
    </g>
    <g transform="translate(192 149)">
      <mask id="h" fill="white">
        <use xlink:href="#f"/>
      </mask>
      <use fill="#2A3C6A" xlink:href="#f"/>
      <path fill="url(#g)" d="M79,4.66025404 L145,42.7653718 C154.282032,48.1243557 160,58.0281662 160,68.7461339 L160,144.956369 C160,155.674337 154.282032,165.578148 145,170.937132 L79,209.042249 C69.7179677,214.401233 58.2820323,214.401233 49,209.042249 L-17,170.937132 C-26.2820323,165.578148 -32,155.674337 -32,144.956369 L-32,68.7461339 C-32,58.0281662 -26.2820323,48.1243557 -17,42.7653718 L49,4.66025404 C58.2820323,-0.698729811 69.7179677,-0.698729811 79,4.66025404 Z" mask="url(#h)"/>
    </g>
    <g transform="translate(288 237)">
      <mask id="k" fill="white">
        <use xlink:href="#i"/>
      </mask>
      <use fill="#2A3C6A" xlink:href="#i"/>
      <path fill="url(#j)" d="M-17,-83.339746 L49,-45.2346282 C58.2820323,-39.8756443 64,-29.9718338 64,-19.2538661 L64,56.9563695 C64,67.6743371 58.2820323,77.5781477 49,82.9371316 L-17,121.042249 C-26.2820323,126.401233 -37.7179677,126.401233 -47,121.042249 L-113,82.9371316 C-122.282032,77.5781477 -128,67.6743371 -128,56.9563695 L-128,-19.2538661 C-128,-29.9718338 -122.282032,-39.8756443 -113,-45.2346282 L-47,-83.339746 C-37.7179677,-88.6987298 -26.2820323,-88.6987298 -17,-83.339746 Z" mask="url(#k)"/>
    </g>
    <g transform="translate(160 237)">
      <mask id="n" fill="white">
        <use xlink:href="#l"/>
      </mask>
      <use fill="#2A3C6A" xlink:href="#l"/>
      <path fill="url(#m)" d="M111,-83.339746 L177,-45.2346282 C186.282032,-39.8756443 192,-29.9718338 192,-19.2538661 L192,56.9563695 C192,67.6743371 186.282032,77.5781477 177,82.9371316 L111,121.042249 C101.717968,126.401233 90.2820323,126.401233 81,121.042249 L15,82.9371316 C5.7179677,77.5781477 -6.57252031e-13,67.6743371 -6.67910172e-13,56.9563695 L-6.96331881e-13,-19.2538661 C-7.01660952e-13,-29.9718338 5.7179677,-39.8756443 15,-45.2346282 L81,-83.339746 C90.2820323,-88.6987298 101.717968,-88.6987298 111,-83.339746 Z" mask="url(#n)"/>
    </g>
  </g>
</svg>
