<svg xmlns="http://www.w3.org/2000/svg" width="512" height="512" viewBox="0 0 512 512" xmlns:xlink="http://www.w3.org/1999/xlink">
  <defs>
    <path id="a" d="M111,8.66025404 L177,46.7653718 C186.282032,52.1243557 192,62.0281662 192,72.7461339 L192,148.956369 C192,159.674337 186.282032,169.578148 177,174.937132 L111,213.042249 C101.717968,218.401233 90.2820323,218.401233 81,213.042249 L15,174.937132 C5.7179677,169.578148 -6.57252031e-13,159.674337 -6.67910172e-13,148.956369 L-6.96331881e-13,72.7461339 C-7.01660952e-13,62.0281662 5.7179677,52.1243557 15,46.7653718 L81,8.66025404 C90.2820323,3.30127019 101.717968,3.30127019 111,8.66025404 Z"/>
    <linearGradient id="b" x1="138.263%" x2="-42.254%" y1="50%" y2="50%">
      <stop stop-color="#ECF4FA" offset="0%"/>
      <stop stop-color="#DEE5EC" offset="100%"/>
    </linearGradient>
    <linearGradient id="d" x1="100%" x2="0%" y1="74.796%" y2="31.626%">
      <stop stop-color="#A9B7CB" offset="0%"/>
      <stop stop-color="#CFD9E2" offset="100%"/>
    </linearGradient>
    <path id="e" d="M135,5.39230485 L227,58.5085296 C232.739511,61.8222381 234.706013,69.161323 231.392305,74.9008345 C230.339085,76.725065 228.824231,78.2399193 227,79.2931393 L135,132.409364 C123.861561,138.840145 110.138439,138.840145 99,132.409364 L7,79.2931393 C1.26048852,75.9794308 -0.706013344,68.6403459 2.60769515,62.9008345 C3.66091514,61.0766039 5.17576948,59.5617496 7,58.5085296 L99,5.39230485 C110.138439,-1.03847577 123.861561,-1.03847577 135,5.39230485 Z"/>
    <linearGradient id="f" x1="50%" x2="50%" y1="0%" y2="30.063%">
      <stop stop-color="#46E17D" offset="0%"/>
      <stop stop-color="#2A3C6A" stop-opacity="0" offset="100%"/>
    </linearGradient>
    <path id="h" d="M128,12.224183 L128,118.654954 C128,131.509045 121.14634,143.387898 110.018106,149.821408 L18.0060354,203.015887 C12.2684497,206.332928 4.92822378,204.37069 1.61118203,198.633104 C0.555719561,196.807439 0,194.735872 0,192.627069 L0,86.1962974 C0,73.3422065 6.85365966,61.4633539 17.9818938,55.0298435 L109.993965,1.83536505 C115.73155,-1.4816767 123.071776,0.4805619 126.388818,6.21814764 C127.44428,8.04381244 128,10.1153793 128,12.224183 Z"/>
    <linearGradient id="i" x1="100%" x2="66.303%" y1="75.358%" y2="57.551%">
      <stop stop-color="#6D9EF3" offset="0%"/>
      <stop stop-color="#2A3C6A" stop-opacity="0" offset="100%"/>
    </linearGradient>
    <path id="k" d="M128,192.631435 C128,194.740239 127.44428,196.811806 126.388818,198.637471 C123.071776,204.375057 115.73155,206.337295 109.993965,203.020253 L17.9818938,149.825775 C6.85365966,143.392265 1.42108547e-14,131.513412 1.42108547e-14,118.659321 L0,12.2285499 C0,10.1197462 0.555719561,8.04817927 1.61118203,6.22251447 C4.92822378,0.484928733 12.2684497,-1.47730987 18.0060354,1.83973189 L110.018106,55.0342103 C121.14634,61.4677207 128,73.3465734 128,86.2006642 L128,192.631435 Z"/>
    <linearGradient id="l" x1="1.795%" x2="33.3%" y1="74.944%" y2="58.069%">
      <stop stop-color="#FF708B" offset="0%"/>
      <stop stop-color="#2A3C6A" stop-opacity="0" offset="100%"/>
    </linearGradient>
  </defs>
  <g fill="none" fill-rule="evenodd" transform="translate(96 76)">
    <g transform="translate(64 69)">
      <mask id="c" fill="white">
        <use xlink:href="#a"/>
      </mask>
      <use fill="#CFD9E2" xlink:href="#a"/>
      <path fill="url(#b)" d="M96,-1.86517468e-14 L192,55.4256258 L111,102.190998 C101.717968,107.549981 90.2820323,107.549981 81,102.190998 L-1.12265752e-12,55.4256258 L96,-1.86517468e-14 Z" mask="url(#c)"/>
      <path fill="url(#d)" d="M192,55.4256258 L192,166.276878 L96,221.702503 L96,117.779455 C96,113.492268 98.2871871,109.530744 102,107.38715 L192,55.4256258 Z" mask="url(#c)"/>
    </g>
    <g transform="translate(43)">
      <mask id="g" fill="white">
        <use xlink:href="#e"/>
      </mask>
      <use fill="#2A3C6A" xlink:href="#e"/>
      <path fill="url(#f)" d="M132,77.660254 L198,115.765372 C207.282032,121.124356 213,131.028166 213,141.746134 L213,217.956369 C213,228.674337 207.282032,238.578148 198,243.937132 L132,282.042249 C122.717968,287.401233 111.282032,287.401233 102,282.042249 L36,243.937132 C26.7179677,238.578148 21,228.674337 21,217.956369 L21,141.746134 C21,131.028166 26.7179677,121.124356 36,115.765372 L102,77.660254 C111.282032,72.3012702 122.717968,72.3012702 132,77.660254 Z" mask="url(#g)"/>
    </g>
    <g transform="translate(192 133)">
      <mask id="j" fill="white">
        <use xlink:href="#h"/>
      </mask>
      <use fill="#2A3C6A" xlink:href="#h"/>
      <path fill="url(#i)" d="M-17,-55.339746 L49,-17.2346282 C58.2820323,-11.8756443 64,-1.97183378 64,8.74613392 L64,84.9563695 C64,95.6743371 58.2820323,105.578148 49,110.937132 L-17,149.042249 C-26.2820323,154.401233 -37.7179677,154.401233 -47,149.042249 L-113,110.937132 C-122.282032,105.578148 -128,95.6743371 -128,84.9563695 L-128,8.74613392 C-128,-1.97183378 -122.282032,-11.8756443 -113,-17.2346282 L-47,-55.339746 C-37.7179677,-60.6987298 -26.2820323,-60.6987298 -17,-55.339746 Z" mask="url(#j)"/>
    </g>
    <g transform="translate(0 133)">
      <mask id="m" fill="white">
        <use xlink:href="#k"/>
      </mask>
      <use fill="#2A3C6A" xlink:href="#k"/>
      <path fill="url(#l)" d="M175,-55.339746 L241,-17.2346282 C250.282032,-11.8756443 256,-1.97183378 256,8.74613392 L256,84.9563695 C256,95.6743371 250.282032,105.578148 241,110.937132 L175,149.042249 C165.717968,154.401233 154.282032,154.401233 145,149.042249 L79,110.937132 C69.7179677,105.578148 64,95.6743371 64,84.9563695 L64,8.74613392 C64,-1.97183378 69.7179677,-11.8756443 79,-17.2346282 L145,-55.339746 C154.282032,-60.6987298 165.717968,-60.6987298 175,-55.339746 Z" mask="url(#m)"/>
    </g>
  </g>
</svg>
