<svg xmlns="http://www.w3.org/2000/svg" width="512" height="512" viewBox="0 0 512 512" xmlns:xlink="http://www.w3.org/1999/xlink">
  <defs>
    <linearGradient id="b" x1="50%" x2="50%" y1="30.815%" y2="100%">
      <stop stop-color="#3D5384" offset="0%"/>
      <stop stop-color="#1F2D51" offset="100%"/>
    </linearGradient>
    <path id="a" d="M111,8.66025404 L177,46.7653718 C186.282032,52.1243557 192,62.0281662 192,72.7461339 L192,148.956369 C192,159.674337 186.282032,169.578148 177,174.937132 L111,213.042249 C101.717968,218.401233 90.2820323,218.401233 81,213.042249 L15,174.937132 C5.7179677,169.578148 -6.57252031e-13,159.674337 -6.67910172e-13,148.956369 L-6.96331881e-13,72.7461339 C-7.01660952e-13,62.0281662 5.7179677,52.1243557 15,46.7653718 L81,8.66025404 C90.2820323,3.30127019 101.717968,3.30127019 111,8.66025404 Z"/>
    <linearGradient id="c" x1="168.335%" x2="-66.084%" y1="44.29%" y2="57.598%">
      <stop stop-color="#546FA3" offset="0%"/>
      <stop stop-color="#2A3C6A" offset="100%"/>
    </linearGradient>
    <linearGradient id="e" x1="104.957%" x2="6.167%" y1="72.161%" y2="18.645%">
      <stop stop-color="#0A1122" offset="0%"/>
      <stop stop-color="#2A3C6A" offset="100%"/>
    </linearGradient>
    <linearGradient id="f" x1="50%" x2="50%" y1="100%" y2="0%">
      <stop stop-color="#A4E87A" offset="0%"/>
      <stop stop-color="#57DBA9" offset="42.722%"/>
      <stop stop-color="#28D4C6" offset="100%"/>
    </linearGradient>
    <linearGradient id="g" x1="0%" y1="30.086%" y2="66.584%">
      <stop stop-color="#1F96F9" offset="0%"/>
      <stop stop-color="#416FEC" offset="41.09%"/>
      <stop stop-color="#5E4FE1" offset="100%"/>
    </linearGradient>
    <linearGradient id="h" x1="100%" x2="6.577%" y1="31.111%" y2="65.361%">
      <stop stop-color="#FF9A5D" offset="0%"/>
      <stop stop-color="#FF615B" offset="41.909%"/>
      <stop stop-color="#FF2C59" offset="100%"/>
    </linearGradient>
  </defs>
  <g fill="none" fill-rule="evenodd">
    <rect width="512" height="512" fill="#E8ECEF"/>
    <g transform="translate(96 76)">
      <g transform="translate(64 69)">
        <mask id="d" fill="white">
          <use xlink:href="#a"/>
        </mask>
        <use fill="url(#b)" xlink:href="#a"/>
        <path fill="url(#c)" d="M96,-1.86517468e-14 L192,55.4256258 L111,102.190998 C101.717968,107.549981 90.2820323,107.549981 81,102.190998 L-1.12265752e-12,55.4256258 L96,-1.86517468e-14 Z" mask="url(#d)"/>
        <path fill="url(#e)" d="M192,55.4256258 L192,166.276878 L96,221.702503 L96,117.779455 C96,113.492268 98.2871871,109.530744 102,107.38715 L192,55.4256258 Z" mask="url(#d)"/>
      </g>
      <path fill="url(#f)" d="M178,5.39230485 L270,58.5085296 C275.739511,61.8222381 277.706013,69.161323 274.392305,74.9008345 C273.339085,76.725065 271.824231,78.2399193 270,79.2931393 L178,132.409364 C166.861561,138.840145 153.138439,138.840145 142,132.409364 L50,79.2931393 C44.2604885,75.9794308 42.2939867,68.6403459 45.6076952,62.9008345 C46.6609151,61.0766039 48.1757695,59.5617496 50,58.5085296 L142,5.39230485 C153.138439,-1.03847577 166.861561,-1.03847577 178,5.39230485 Z" opacity=".7"/>
      <path fill="url(#g)" d="M320,145.224183 L320,251.654954 C320,264.509045 313.14634,276.387898 302.018106,282.821408 L210.006035,336.015887 C204.26845,339.332928 196.928224,337.37069 193.611182,331.633104 C192.55572,329.807439 192,327.735872 192,325.627069 L192,219.196297 C192,206.342207 198.85366,194.463354 209.981894,188.029843 L301.993965,134.835365 C307.73155,131.518323 315.071776,133.480562 318.388818,139.218148 C319.44428,141.043812 320,143.115379 320,145.224183 Z" opacity=".703"/>
      <path fill="url(#h)" d="M128,325.631435 C128,327.740239 127.44428,329.811806 126.388818,331.637471 C123.071776,337.375057 115.73155,339.337295 109.993965,336.020253 L17.9818938,282.825775 C6.85365966,276.392265 1.42108547e-14,264.513412 1.42108547e-14,251.659321 L0,145.22855 C0,143.119746 0.555719561,141.048179 1.61118203,139.222514 C4.92822378,133.484929 12.2684497,131.52269 18.0060354,134.839732 L110.018106,188.03421 C121.14634,194.467721 128,206.346573 128,219.200664 L128,325.631435 Z" opacity=".7"/>
    </g>
  </g>
</svg>
