<svg xmlns="http://www.w3.org/2000/svg" width="512" height="512" viewBox="0 0 512 512" xmlns:xlink="http://www.w3.org/1999/xlink">
  <defs>
    <path id="a" d="M185,7.31725224 L295,71.0553307 C310.470054,80.0192535 320,96.585266 320,114.513112 L320,241.989269 C320,259.917114 310.470054,276.483127 295,285.447049 L185,349.185128 C169.529946,358.149051 150.470054,358.149051 135,349.185128 L25,285.447049 C9.52994616,276.483127 6.51330841e-14,259.917114 4.73695157e-14,241.989269 L0,114.513112 C-8.8817842e-15,96.585266 9.52994616,80.0192535 25,71.0553307 L135,7.31725224 C150.470054,-1.64667055 169.529946,-1.64667055 185,7.31725224 Z"/>
    <linearGradient id="b" x1="138.263%" x2="-42.254%" y1="50%" y2="50%">
      <stop stop-color="#ECF4FA" offset="0%"/>
      <stop stop-color="#DEE5EC" offset="100%"/>
    </linearGradient>
    <linearGradient id="d" x1="100%" x2="0%" y1="74.796%" y2="31.626%">
      <stop stop-color="#A9B7CB" offset="0%"/>
      <stop stop-color="#CFD9E2" offset="100%"/>
    </linearGradient>
    <path id="e" d="M212.857091,54.3016531 L136.453125,98.858745 C117.918067,109.667978 95.0819333,109.667978 76.546875,98.858745 L0.142909488,54.3016531 L81.5390625,6.83322843 C96.9849444,-2.17446606 116.015056,-2.17446606 131.460937,6.83322843 L212.857091,54.3016531 Z"/>
    <linearGradient id="f" x1="50%" x2="50%" y1="0%" y2="30.063%">
      <stop stop-color="#46E17D" offset="0%"/>
      <stop stop-color="#2A3C6A" stop-opacity="0" offset="100%"/>
    </linearGradient>
    <path id="h" d="M0,185.956467 L0,97.2960629 C0,75.8058223 11.4584622,55.9460434 30.0634787,45.1901146 L107,0.711586829 L107,95.2230769 C107,113.142019 97.4402728,129.699804 81.921875,138.659274 L0,185.956467 Z"/>
    <linearGradient id="i" x1="100%" x2="66.303%" y1="75.358%" y2="57.551%">
      <stop stop-color="#6D9EF3" offset="0%"/>
      <stop stop-color="#2A3C6A" stop-opacity="0" offset="100%"/>
    </linearGradient>
    <path id="k" d="M-9.09494702e-13,0.718887563 L76.9365213,45.1974154 C95.5415378,55.9533441 107,75.813123 107,97.3033636 L107,185.956467 L25.078125,138.659274 C9.55972724,129.699804 -8.56037463e-13,113.142019 -8.73856543e-13,95.2230769 L-9.09494702e-13,0.718887563 Z"/>
    <linearGradient id="l" x1="1.795%" x2="33.3%" y1="74.944%" y2="58.069%">
      <stop stop-color="#FF708B" offset="0%"/>
      <stop stop-color="#2A3C6A" stop-opacity="0" offset="100%"/>
    </linearGradient>
  </defs>
  <g fill="none" fill-rule="evenodd">
    <rect width="512" height="512" fill="#828FA8"/>
    <g transform="translate(96 78)">
      <mask id="c" fill="white">
        <use xlink:href="#a"/>
      </mask>
      <use fill="#CFD9E2" xlink:href="#a"/>
      <path fill="url(#b)" d="M160,-7.1686747 L320,85.5412577 L185,163.765263 C169.529946,172.729186 150.470054,172.729186 135,163.765263 L-1.12976295e-12,85.5412577 L160,-7.1686747 Z" mask="url(#c)"/>
      <path fill="url(#d)" d="M320,85.5412577 L320,270.961122 L160,363.671055 L160,189.839932 C160,182.668793 163.811978,176.042388 170,172.456819 L320,85.5412577 Z" mask="url(#c)"/>
      <g transform="translate(53)">
        <mask id="g" fill="white">
          <use xlink:href="#e"/>
        </mask>
        <use fill="#2A3C6A" xlink:href="#e"/>
        <path fill="url(#f)" d="M131.460937,6.83322843 L241.289062,70.8825462 C256.734944,79.8902407 266.25,96.5371467 266.25,114.552536 L266.25,242.651171 C266.25,260.66656 256.734944,277.313466 241.289062,286.321161 L131.460937,350.370478 C116.015056,359.378173 96.9849444,359.378173 81.5390625,350.370478 L-28.2890625,286.321161 C-43.7349444,277.313466 -53.25,260.66656 -53.25,242.651171 L-53.25,114.552536 C-53.25,96.5371467 -43.7349444,79.8902407 -28.2890625,70.8825462 L81.5390625,6.83322843 C96.9849444,-2.17446606 116.015056,-2.17446606 131.460937,6.83322843 Z" mask="url(#g)"/>
      </g>
      <g transform="translate(213 147)">
        <mask id="j" fill="white">
          <use xlink:href="#h"/>
        </mask>
        <use fill="#2A3C6A" xlink:href="#h"/>
        <path fill="url(#i)" d="M-28.421875,-139.332389 L81.921875,-75.6259664 C97.4402728,-66.6664955 107,-50.1087106 107,-32.1897689 L107,95.2230769 C107,113.142019 97.4402728,129.699804 81.921875,138.659274 L-28.421875,202.365697 C-43.9402728,211.325168 -63.0597272,211.325168 -78.578125,202.365697 L-188.921875,138.659274 C-204.440273,129.699804 -214,113.142019 -214,95.2230769 L-214,-32.1897689 C-214,-50.1087106 -204.440273,-66.6664955 -188.921875,-75.6259664 L-78.578125,-139.332389 C-63.0597272,-148.29186 -43.9402728,-148.29186 -28.421875,-139.332389 Z" mask="url(#j)"/>
      </g>
      <g transform="translate(0 147)">
        <mask id="m" fill="white">
          <use xlink:href="#k"/>
        </mask>
        <use fill="#2A3C6A" xlink:href="#k"/>
        <path fill="url(#l)" d="M185.578125,-139.332389 L295.921875,-75.6259664 C311.440273,-66.6664955 321,-50.1087106 321,-32.1897689 L321,95.2230769 C321,113.142019 311.440273,129.699804 295.921875,138.659274 L185.578125,202.365697 C170.059727,211.325168 150.940273,211.325168 135.421875,202.365697 L25.078125,138.659274 C9.55972724,129.699804 6.5336625e-14,113.142019 4.75175455e-14,95.2230769 L0,-32.1897689 C-8.90953977e-15,-50.1087106 9.55972724,-66.6664955 25.078125,-75.6259664 L135.421875,-139.332389 C150.940273,-148.29186 170.059727,-148.29186 185.578125,-139.332389 Z" mask="url(#m)"/>
      </g>
    </g>
  </g>
</svg>
